# xmcd CD database file
#
# Track frame offsets:
#	150
#	10737
#	24924
#	39359
#	51954
#	65598
#	81243
#	104224
#	124072
#	134771
#	147101
#	160722
#	182956
#	192697
#	209488
#	222467
#	236050
#
# Disc length: 3328 seconds
#
# Revision: 1
# Processed by: cddbd v1.5.2PL0 Copyright (c) Steve Scherf et al.
# Submitted via: CDex 1.51
#
DISCID=070cfe11
DTITLE=Chet Baker - I'll remember you
DYEAR=2013
DGENRE=Jazz
TTITLE0=My funny Valentine
TTITLE1=I can't get started
TTITLE2=Sweet lorraine
TTITLE3=Time after time
TTITLE4=I get along without you very well
TTITLE5=Pro defunctis
TTITLE6=The route
TTITLE7=My ideal
TTITLE8=The half dozen's
TTITLE9=Love or leave me
TTITLE10=There will never be another
TTITLE11=Lush life
TTITLE12=Embraceable you
TTITLE13=What's new (live)
TTITLE14=Aren't you glad you're you
TTITLE15=Five brothers (live)
TTITLE16=Bea's flat
EXTD=YEAR: 2013
EXTT0=
EXTT1=
EXTT2=
EXTT3=
EXTT4=
EXTT5=
EXTT6=
EXTT7=
EXTT8=
EXTT9=
EXTT10=
EXTT11=
EXTT12=
EXTT13=
EXTT14=
EXTT15=
EXTT16=
PLAYORDER=
